<?xml version="1.0" encoding="UTF-8" standalone="no"?>
<!-- Created with Inkscape (http://www.inkscape.org/) -->

<svg
   width="256"
   height="256"
   viewBox="0 0 256 256"
   version="1.1"
   id="svg1"
   xml:space="preserve"
   inkscape:version="1.4.4 (dcaf3e7d9e, 2026-05-05)"
   sodipodi:docname="favicon.svg"
   inkscape:export-filename="avatar_v008@512.png"
   inkscape:export-xdpi="96"
   inkscape:export-ydpi="96"
   xmlns:inkscape="http://www.inkscape.org/namespaces/inkscape"
   xmlns:sodipodi="http://sodipodi.sourceforge.net/DTD/sodipodi-0.dtd"
   xmlns:xlink="http://www.w3.org/1999/xlink"
   xmlns="http://www.w3.org/2000/svg"
   xmlns:svg="http://www.w3.org/2000/svg"><sodipodi:namedview
     id="namedview1"
     pagecolor="#505050"
     bordercolor="#eeeeee"
     borderopacity="1"
     inkscape:showpageshadow="0"
     inkscape:pageopacity="0"
     inkscape:pagecheckerboard="0"
     inkscape:deskcolor="#505050"
     inkscape:document-units="px"
     inkscape:zoom="0.82324221"
     inkscape:cx="41.907472"
     inkscape:cy="51.625147"
     inkscape:window-width="1918"
     inkscape:window-height="1052"
     inkscape:window-x="0"
     inkscape:window-y="0"
     inkscape:window-maximized="1"
     inkscape:current-layer="layer1"
     showgrid="true"><inkscape:grid
       id="grid1"
       units="px"
       originx="0"
       originy="0"
       spacingx="1"
       spacingy="1"
       empcolor="#0099e5"
       empopacity="0.30196078"
       color="#0099e5"
       opacity="0.14901961"
       empspacing="64"
       enabled="false"
       visible="true" /></sodipodi:namedview><defs
     id="defs1"><linearGradient
       id="swatch3"
       inkscape:swatch="solid"><stop
         style="stop-color:#000000;stop-opacity:1;"
         offset="0"
         id="stop4" /></linearGradient><pattern
       inkscape:collect="always"
       xlink:href="#pattern20"
       preserveAspectRatio="xMidYMid"
       id="pattern21"
       patternTransform="matrix(0.5,0,0,0.5,208.39241,-82.145388)" /><pattern
       inkscape:collect="always"
       xlink:href="#pattern18"
       preserveAspectRatio="xMidYMid"
       id="pattern20"
       patternTransform="matrix(0.5,0,0,0.5,208.39241,-82.145388)"
       x="0"
       y="0" /><pattern
       inkscape:collect="always"
       xlink:href="#pattern9"
       preserveAspectRatio="xMidYMid"
       id="pattern17"
       patternTransform="matrix(0.77881044,0,0,0.77881044,22.780358,-5.4773978)" /><pattern
       patternUnits="userSpaceOnUse"
       width="248.17348"
       height="128.68372"
       patternTransform="translate(-248.17347,49.676702)"
       preserveAspectRatio="xMidYMid"
       id="pattern9"
       inkscape:label="pattern9"><g
         id="g9739"
         transform="matrix(0.38255929,0,0,0.38275794,-0.72223009,-0.73051753)"
         style="fill:#00aade;fill-opacity:1;stroke-width:0.998999;stroke-dasharray:none"><g
           inkscape:label="Layer 1"
           id="g9707"
           transform="translate(-35.477954,-382.24677)"
           style="fill:#00aade;fill-opacity:1;stroke-width:0.998999;stroke-dasharray:none" /><g
           id="g9715"
           inkscape:label="Big X"
           transform="translate(-35.477954,-382.24677)"
           style="fill:#00aade;fill-opacity:1;stroke-width:0.998999;stroke-dasharray:none"><g
             inkscape:groupmode="layer"
             id="g9709"
             inkscape:label="X_Shadow"
             style="fill:#00aade;fill-opacity:1;stroke-width:0.998999;stroke-dasharray:none" /><g
             inkscape:groupmode="layer"
             id="g9711"
             inkscape:label="X_Path"
             style="fill:#00aade;fill-opacity:1;stroke-width:0.998999;stroke-dasharray:none" /><g
             inkscape:groupmode="layer"
             id="g9713"
             inkscape:label="X_Gloss"
             style="fill:#00aade;fill-opacity:1;stroke-width:0.998999;stroke-dasharray:none" /></g><g
           id="g9723"
           inkscape:label="Xfce"
           transform="translate(-35.477954,-382.24677)"
           style="fill:#00aade;fill-opacity:1;stroke-width:0.998999;stroke-dasharray:none"><g
             inkscape:groupmode="layer"
             id="g9717"
             inkscape:label="Xfce_Shadow"
             style="fill:#00aade;fill-opacity:1;stroke-width:0.998999;stroke-dasharray:none" /><g
             inkscape:groupmode="layer"
             id="g9719"
             inkscape:label="Xfce_Path"
             style="fill:#00aade;fill-opacity:1;stroke-width:0.998999;stroke-dasharray:none" /><g
             inkscape:groupmode="layer"
             id="g9721"
             inkscape:label="Xfce_Gloss"
             style="fill:#00aade;fill-opacity:1;stroke-width:0.998999;stroke-dasharray:none" /></g><g
           id="g9737"
           inkscape:label="Mouse"
           transform="translate(-35.477954,-382.24677)"
           style="fill:#00aade;fill-opacity:1;stroke-width:0.998999;stroke-dasharray:none"><g
             inkscape:groupmode="layer"
             id="g9725"
             inkscape:label="Mouse_Shadow"
             style="fill:#00aade;fill-opacity:1;stroke-width:0.998999;stroke-dasharray:none" /><g
             inkscape:groupmode="layer"
             id="g9733"
             inkscape:label="Mouse_Path"
             style="fill:#00aade;fill-opacity:1;stroke-width:0.998999;stroke-dasharray:none"><path
               inkscape:connector-curvature="0"
               d="m 686.01129,438.94339 c -3.353,-2.77349 -29.64674,38.71236 -23.83256,43.01749 3.49603,2.61546 25.33033,-41.53853 23.83256,-43.01749 z"
               id="path9727"
               style="fill:#00aade;fill-opacity:1;fill-rule:evenodd;stroke:none;stroke-width:0.998999;stroke-linecap:butt;stroke-linejoin:miter;stroke-miterlimit:4;stroke-dasharray:none;stroke-opacity:1"
               inkscape:export-filename="/home/knome/Stuff/xubuntu-mouse-draft-2.png"
               inkscape:export-xdpi="1026.8827"
               inkscape:export-ydpi="1026.8827" /><path
               inkscape:connector-curvature="0"
               d="m 655.78463,433.1306 c -1.65949,-1.92678 -10.46548,42.78039 -6.39371,44.75985 3.49601,2.61546 9.58499,-42.43418 6.39371,-44.75985 z"
               id="path9729"
               style="fill:#00aade;fill-opacity:1;fill-rule:evenodd;stroke:none;stroke-width:0.998999;stroke-linecap:butt;stroke-linejoin:miter;stroke-miterlimit:4;stroke-dasharray:none;stroke-opacity:1"
               inkscape:export-filename="/home/knome/Stuff/xubuntu-mouse-draft-2.png"
               inkscape:export-xdpi="1026.8827"
               inkscape:export-ydpi="1026.8827" /><path
               inkscape:connector-curvature="0"
               style="fill:#00aade;fill-opacity:1;fill-rule:evenodd;stroke:none;stroke-width:0.998999;stroke-linecap:butt;stroke-linejoin:miter;stroke-miterlimit:4;stroke-dasharray:none;stroke-opacity:1"
               d="m 37.625,384.15853 c -3.443355,1.88538 27.552632,22.09367 85.46875,45.9375 57.91987,23.84382 137.92965,84.27698 131.65625,94.03125 -18.81237,26.49691 -29.90817,58.18792 -22.25,112.46875 1.38111,9.55483 -28.31634,26.14558 -26.15625,40.5625 1.80637,10.9698 33.19295,-10.87512 36.625,-6.5625 2.0999,7.74098 -16.79186,46.91895 -9.15625,49.71875 5.58462,1.6596 54.67873,-46.58659 57.53125,-45.78125 80.96219,24.47603 186.3041,5.99395 188.34375,5.21875 -0.19196,-0.42524 75.80178,35.72642 82.40625,31.40625 16.65983,-18.04093 -31.57326,-43.46801 -23.53125,-53.625 3.52614,-5.31744 58.74796,19.9643 61.46875,13.0625 3.95898,-11.94824 -25.64187,-37.03634 -30.09375,-44.46875 -3.87242,-6.85285 -4.71239,-17.9194 5.21875,-24.84375 9.9349,-6.92434 111.50996,-45.77552 107.25,-75.84375 -7.36468,-54.63458 -128.82052,-58.18257 -130.78125,-62.78125 -0.92191,-2.1601 5.3446,-78.12685 -30.09375,-64.09375 -21.81925,8.12105 -4.00496,56.52301 -2.59375,62.78125 1.30204,5.7615 -9.70773,5.15389 -11.78125,2.625 -4.6287,-5.65237 -19.9116,-56.10291 -37.9375,-47.09375 -25.28137,13.939 -1.48853,57.43256 -6.53125,58.84375 -9.36668,5.23466 -8.83606,18.02087 -16.34375,28.4375 -12.38092,17.74363 -105.021,-8.31111 -134.96875,-10.125 -21.92462,-1.29455 -42.8956,16.69428 -44.875,14.40625 -26.69638,-26.73399 -81.9285,-73.2869 -142.4375,-88.75 C 90.129469,410.48114 39.649614,383.81985 37.625,384.15853 Z m 529.46875,102.21875 c 5.78951,-10e-6 10.46875,5.34579 10.46875,11.9375 2e-5,6.59167 -4.67924,11.9375 -10.46875,11.9375 -5.78954,0 -10.5,-5.34583 -10.5,-11.9375 10e-6,-6.59171 4.71046,-11.9375 10.5,-11.9375 z m -23.53125,7.25 c 4.45553,19.23387 11.41036,25.36339 32.28125,24.75 -26.56462,24.35939 -42.70923,-17.37781 -32.28125,-24.75 z M 601,543.90853 c 1.08692,0.0412 1.92367,0.28894 2.46875,0.8125 10.46545,3.79336 -44.97502,23.75615 -45.34375,20.9375 -0.57648,-2.01216 32.36808,-22.14821 42.875,-21.75 z m 5.625,12.78125 c 0.57282,-0.0444 1.07711,0.032 1.5,0.25 9.87845,9.8145 -31.27532,31.57642 -30.8125,30.8125 -3.31635,-2.00393 20.72016,-30.39586 29.3125,-31.0625 z"
               id="path9731" /></g><g
             inkscape:groupmode="layer"
             id="g9735"
             inkscape:label="Mouse_Gloss"
             style="fill:#00aade;fill-opacity:1;stroke-width:0.998999;stroke-dasharray:none" /></g></g></pattern><pattern
       patternUnits="userSpaceOnUse"
       width="211.35375"
       height="142.62829"
       patternTransform="translate(-257.21031,28.472665)"
       preserveAspectRatio="xMidYMid"
       id="pattern18"
       inkscape:label="pattern18"><rect
         style="fill:url(#pattern17);stroke:none;stroke-width:0.77881"
         width="193.28009"
         height="100.22022"
         x="22.78035"
         y="-5.4774003"
         id="rect9"
         transform="rotate(13.519789)" /></pattern><mask
       maskUnits="userSpaceOnUse"
       id="mask21"><rect
         style="opacity:0.1;fill:url(#pattern21);fill-opacity:1;stroke-width:1.52902"
         id="rect21"
         width="782.85596"
         height="782.85596"
         x="-135.42798"
         y="-135.42798" /></mask><pattern
       patternTransform="translate(-47.6392,673.078)"
       patternUnits="userSpaceOnUse"
       x="0"
       y="0"
       width="272.9"
       height="211.406"
       id="pattern117"
       inkscape:label="pattern117"><path
         d="m 545.808,72.725 -273.371,0 0,51.34 273.371,0 0,-51.34 z"
         style="fill:#3a7b51;fill-opacity:1;fill-rule:nonzero;stroke:none"
         id="path2" /><path
         d="m 545.808,145.582 -273.371,0 0,51.34 273.371,0 0,-51.34 z"
         style="fill:#bc3a44;fill-opacity:1;fill-rule:nonzero;stroke:none"
         id="path3-7" /><path
         d="m 545.808,196.921 -273.371,0 0,14.484 273.371,0 0,-14.484 z"
         style="fill:#ffa933;fill-opacity:1;fill-rule:nonzero;stroke:none"
         id="path4" /><path
         d="m 545.808,10.693 -273.371,0 0,51.34 273.371,0 0,-51.34 z"
         style="fill:#ffa933;fill-opacity:1;fill-rule:nonzero;stroke:none"
         id="path5" /><path
         d="m 545.808,124.064 -273.371,0 0,21.617 273.371,0 0,-21.617 z"
         style="fill:#e8d7bf;fill-opacity:1;fill-rule:nonzero;stroke:none"
         id="path6" /><path
         d="M 0,0 -15.305,16.176 -30.615,0 -45.926,16.177 -61.236,0 -76.545,16.177 -91.854,0 -107.165,16.177 -122.473,0 -137.781,16.177 -153.094,0 -168.402,16.176 -183.71,0 l -15.311,16.177 -13.938,-14.728 -2.742,2.343 16.68,17.625 15.311,-16.176 15.308,16.176 15.308,-16.176 15.313,16.176 15.308,-16.176 15.308,16.176 15.311,-16.176 15.309,16.176 15.309,-16.176 15.31,16.176 15.311,-16.176 15.31,16.176 L 0,5.241 15.311,21.417 30.621,5.241 45.93,21.417 62.398,4.017 59.869,1.449 45.93,16.177 30.621,0 15.311,16.177 0,0 Z"
         style="fill:#bc3a44;fill-opacity:1;fill-rule:nonzero;stroke:none"
         transform="translate(485.8955,124.1636)"
         id="path7" /><path
         d="M 0,0 C 0,14.948 12.116,27.064 27.063,27.064 42.01,27.064 54.126,14.948 54.126,0 L 0,0 Z"
         style="fill:#ffa933;fill-opacity:1;fill-rule:nonzero;stroke:none"
         transform="translate(272.6113,145.5815)"
         id="path8" /><path
         d="m 0,0 c 0,-1.317 -1.067,-2.385 -2.385,-2.385 -1.317,0 -2.385,1.068 -2.385,2.385 0,1.317 1.068,2.385 2.385,2.385 C -1.067,2.385 0,1.317 0,0"
         style="fill:#bc3a44;fill-opacity:1;fill-rule:nonzero;stroke:none"
         transform="translate(277.6641,204.1636)"
         id="path9" /><path
         d="m 545.829,7.129 -273.393,0 0,3.564 273.393,0 0,-3.564 z"
         style="fill:#bc3a44;fill-opacity:1;fill-rule:nonzero;stroke:none"
         id="path10" /><path
         d="m 545.829,3.564 -273.393,0 0,3.564 273.393,0 0,-3.564 z"
         style="fill:#352f2f;fill-opacity:1;fill-rule:nonzero;stroke:none"
         id="path11" /><path
         d="m 545.829,0 -273.393,0 0,3.564 273.393,0 0,-3.564 z"
         style="fill:#3a7b51;fill-opacity:1;fill-rule:nonzero;stroke:none"
         id="path12" /><path
         d="m 545.829,69.161 -273.393,0 0,3.563 273.393,0 0,-3.563 z"
         style="fill:#bc3a44;fill-opacity:1;fill-rule:nonzero;stroke:none"
         id="path13" /><path
         d="m 545.829,65.597 -273.393,0 0,3.564 273.393,0 0,-3.564 z"
         style="fill:#352f2f;fill-opacity:1;fill-rule:nonzero;stroke:none"
         id="path14" /><path
         d="m 545.829,62.033 -273.393,0 0,3.563 273.393,0 0,-3.563 z"
         style="fill:#3a7b51;fill-opacity:1;fill-rule:nonzero;stroke:none"
         id="path15" /><path
         d="m 272.907,72.725 -273.371,0 0,51.34 273.371,0 0,-51.34 z"
         style="fill:#3a7b51;fill-opacity:1;fill-rule:nonzero;stroke:none"
         id="path16" /><path
         d="m 272.907,145.582 -273.371,0 0,51.34 273.371,0 0,-51.34 z"
         style="fill:#bc3a44;fill-opacity:1;fill-rule:nonzero;stroke:none"
         id="path17" /><path
         d="m 272.907,196.921 -273.371,0 0,14.484 273.371,0 0,-14.484 z"
         style="fill:#ffa933;fill-opacity:1;fill-rule:nonzero;stroke:none"
         id="path18" /><path
         d="m 272.907,10.693 -273.371,0 0,51.34 273.371,0 0,-51.34 z"
         style="fill:#ffa933;fill-opacity:1;fill-rule:nonzero;stroke:none"
         id="path19" /><path
         d="m 272.907,124.064 -273.371,0 0,21.617 273.371,0 0,-21.617 z"
         style="fill:#e8d7bf;fill-opacity:1;fill-rule:nonzero;stroke:none"
         id="path20" /><path
         d="M 0,0 -15.305,16.176 -30.615,0 -45.926,16.177 -61.236,0 -76.545,16.177 -91.854,0 -107.165,16.177 -122.473,0 -137.781,16.177 -153.093,0 -168.402,16.176 -183.71,0 l -15.311,16.177 -13.938,-14.728 -2.742,2.343 16.68,17.625 15.311,-16.176 15.308,16.176 15.309,-16.176 15.312,16.176 15.308,-16.176 15.308,16.176 15.311,-16.176 15.309,16.176 15.309,-16.176 15.31,16.176 15.311,-16.176 15.31,16.176 L 0,5.241 15.311,21.417 30.621,5.241 45.93,21.417 62.398,4.017 59.869,1.449 45.93,16.177 30.621,0 15.311,16.177 0,0 Z"
         style="fill:#bc3a44;fill-opacity:1;fill-rule:nonzero;stroke:none"
         transform="translate(212.9951,124.1636)"
         id="path21" /><path
         d="m 60.907,49.914 3.872,0 0,-27.102 -3.872,0 0,27.102 z"
         style="fill:#3a7b51;fill-opacity:1;fill-rule:nonzero;stroke:none"
         id="path22" /><path
         d="m 49.292,49.914 3.872,0 0,-27.102 -3.872,0 0,27.102 z"
         style="fill:#3a7b51;fill-opacity:1;fill-rule:nonzero;stroke:none"
         id="path23" /><path
         d="m 37.677,49.914 3.872,0 0,-27.102 -3.872,0 0,27.102 z"
         style="fill:#3a7b51;fill-opacity:1;fill-rule:nonzero;stroke:none"
         id="path24" /><path
         d="m 3.588,26.685 27.102,0 0,-3.872 -27.102,0 0,3.872 z"
         style="fill:#352f2f;fill-opacity:1;fill-rule:nonzero;stroke:none"
         id="path25" /><path
         d="m 3.588,38.301 27.102,0 0,-3.873 -27.102,0 0,3.873 z"
         style="fill:#352f2f;fill-opacity:1;fill-rule:nonzero;stroke:none"
         id="path26" /><path
         d="m 3.588,49.914 27.102,0 0,-3.871 -27.102,0 0,3.871 z"
         style="fill:#352f2f;fill-opacity:1;fill-rule:nonzero;stroke:none"
         id="path27" /><path
         d="m 71.767,26.685 27.102,0 0,-3.872 -27.102,0 0,3.872 z"
         style="fill:#352f2f;fill-opacity:1;fill-rule:nonzero;stroke:none"
         id="path28" /><path
         d="m 71.767,38.301 27.102,0 0,-3.873 -27.102,0 0,3.873 z"
         style="fill:#352f2f;fill-opacity:1;fill-rule:nonzero;stroke:none"
         id="path29" /><path
         d="m 71.767,49.914 27.102,0 0,-3.871 -27.102,0 0,3.871 z"
         style="fill:#352f2f;fill-opacity:1;fill-rule:nonzero;stroke:none"
         id="path30" /><path
         d="m 197.265,49.914 3.871,0 0,-27.102 -3.871,0 0,27.102 z"
         style="fill:#3a7b51;fill-opacity:1;fill-rule:nonzero;stroke:none"
         id="path31" /><path
         d="m 185.649,49.914 3.871,0 0,-27.102 -3.871,0 0,27.102 z"
         style="fill:#3a7b51;fill-opacity:1;fill-rule:nonzero;stroke:none"
         id="path32" /><path
         d="m 174.032,49.914 3.873,0 0,-27.102 -3.873,0 0,27.102 z"
         style="fill:#3a7b51;fill-opacity:1;fill-rule:nonzero;stroke:none"
         id="path33" /><path
         d="m 139.944,26.685 27.102,0 0,-3.872 -27.102,0 0,3.872 z"
         style="fill:#352f2f;fill-opacity:1;fill-rule:nonzero;stroke:none"
         id="path34" /><path
         d="m 139.944,38.301 27.102,0 0,-3.873 -27.102,0 0,3.873 z"
         style="fill:#352f2f;fill-opacity:1;fill-rule:nonzero;stroke:none"
         id="path35" /><path
         d="m 139.944,49.914 27.102,0 0,-3.871 -27.102,0 0,3.871 z"
         style="fill:#352f2f;fill-opacity:1;fill-rule:nonzero;stroke:none"
         id="path36" /><path
         d="m 208.122,26.685 27.102,0 0,-3.872 -27.102,0 0,3.872 z"
         style="fill:#352f2f;fill-opacity:1;fill-rule:nonzero;stroke:none"
         id="path37" /><path
         d="m 208.122,38.301 27.102,0 0,-3.873 -27.102,0 0,3.873 z"
         style="fill:#352f2f;fill-opacity:1;fill-rule:nonzero;stroke:none"
         id="path38" /><path
         d="m 208.122,49.914 27.102,0 0,-3.871 -27.102,0 0,3.871 z"
         style="fill:#352f2f;fill-opacity:1;fill-rule:nonzero;stroke:none"
         id="path39" /><path
         d="m 265.44,49.914 3.873,0 0,-27.102 -3.873,0 0,27.102 z"
         style="fill:#3a7b51;fill-opacity:1;fill-rule:nonzero;stroke:none"
         id="path40" /><path
         d="m 253.825,49.914 3.871,0 0,-27.102 -3.871,0 0,27.102 z"
         style="fill:#3a7b51;fill-opacity:1;fill-rule:nonzero;stroke:none"
         id="path41" /><path
         d="m 242.212,49.914 3.871,0 0,-27.102 -3.871,0 0,27.102 z"
         style="fill:#3a7b51;fill-opacity:1;fill-rule:nonzero;stroke:none"
         id="path42" /><path
         d="m 129.085,49.914 3.872,0 0,-27.102 -3.872,0 0,27.102 z"
         style="fill:#3a7b51;fill-opacity:1;fill-rule:nonzero;stroke:none"
         id="path43" /><path
         d="m 117.47,49.914 3.871,0 0,-27.102 -3.871,0 0,27.102 z"
         style="fill:#3a7b51;fill-opacity:1;fill-rule:nonzero;stroke:none"
         id="path44" /><path
         d="m 105.854,49.914 3.873,0 0,-27.102 -3.873,0 0,27.102 z"
         style="fill:#3a7b51;fill-opacity:1;fill-rule:nonzero;stroke:none"
         id="path45" /><path
         d="m 0,0 c 0,-10.112 -8.198,-18.309 -18.311,-18.309 -10.111,0 -18.31,8.197 -18.31,18.309 0,10.113 8.199,18.31 18.31,18.31 C -8.198,18.31 0,10.113 0,0"
         style="fill:#ffa933;fill-opacity:1;fill-rule:nonzero;stroke:none"
         transform="translate(134.2432,98.3945)"
         id="path46" /><path
         d="m 0,0 c 0,-6.856 -5.56,-12.414 -12.415,-12.414 -6.856,0 -12.414,5.558 -12.414,12.414 0,6.856 5.558,12.414 12.414,12.414 C -5.56,12.414 0,6.856 0,0"
         style="fill:#352f2f;fill-opacity:1;fill-rule:nonzero;stroke:none"
         transform="translate(128.3477,98.3945)"
         id="path47" /><path
         d="m 0,0 c 0,-3.82 -3.096,-6.916 -6.916,-6.916 -3.819,0 -6.916,3.096 -6.916,6.916 0,3.82 3.097,6.916 6.916,6.916 C -3.096,6.916 0,3.82 0,0"
         style="fill:#bc3a44;fill-opacity:1;fill-rule:nonzero;stroke:none"
         transform="translate(122.8486,98.3945)"
         id="path48" /><path
         d="m 0,0 c 0,-10.112 -8.197,-18.309 -18.311,-18.309 -10.111,0 -18.31,8.197 -18.31,18.309 0,10.113 8.199,18.31 18.31,18.31 C -8.197,18.31 0,10.113 0,0"
         style="fill:#ffa933;fill-opacity:1;fill-rule:nonzero;stroke:none"
         transform="translate(179.2666,98.3945)"
         id="path49" /><path
         d="m 0,0 c 0,-6.856 -5.559,-12.414 -12.414,-12.414 -6.857,0 -12.414,5.558 -12.414,12.414 0,6.856 5.557,12.414 12.414,12.414 C -5.559,12.414 0,6.856 0,0"
         style="fill:#352f2f;fill-opacity:1;fill-rule:nonzero;stroke:none"
         transform="translate(173.3701,98.3945)"
         id="path50" /><path
         d="m 0,0 c 0,-3.82 -3.096,-6.916 -6.916,-6.916 -3.82,0 -6.916,3.096 -6.916,6.916 0,3.82 3.096,6.916 6.916,6.916 C -3.096,6.916 0,3.82 0,0"
         style="fill:#bc3a44;fill-opacity:1;fill-rule:nonzero;stroke:none"
         transform="translate(167.8721,98.3945)"
         id="path51" /><path
         d="m 0,0 c 0,-10.112 -8.197,-18.309 -18.312,-18.309 -10.11,0 -18.309,8.197 -18.309,18.309 0,10.113 8.199,18.31 18.309,18.31 C -8.197,18.31 0,10.113 0,0"
         style="fill:#ffa933;fill-opacity:1;fill-rule:nonzero;stroke:none"
         transform="translate(224.29,98.3945)"
         id="path52" /><path
         d="m 0,0 c 0,-6.856 -5.559,-12.414 -12.416,-12.414 -6.854,0 -12.412,5.558 -12.412,12.414 0,6.856 5.558,12.414 12.412,12.414 C -5.559,12.414 0,6.856 0,0"
         style="fill:#352f2f;fill-opacity:1;fill-rule:nonzero;stroke:none"
         transform="translate(218.3936,98.3945)"
         id="path53" /><path
         d="m 0,0 c 0,-3.82 -3.096,-6.916 -6.918,-6.916 -3.818,0 -6.914,3.096 -6.914,6.916 0,3.82 3.096,6.916 6.914,6.916 C -3.096,6.916 0,3.82 0,0"
         style="fill:#bc3a44;fill-opacity:1;fill-rule:nonzero;stroke:none"
         transform="translate(212.8955,98.3945)"
         id="path54" /><path
         d="m 0,0 c 0,-10.112 -8.199,-18.309 -18.311,-18.309 -10.111,0 -18.308,8.197 -18.308,18.309 0,10.113 8.197,18.31 18.308,18.31 C -8.199,18.31 0,10.113 0,0"
         style="fill:#ffa933;fill-opacity:1;fill-rule:nonzero;stroke:none"
         transform="translate(269.3135,98.3945)"
         id="path55" /><path
         d="m 0,0 c 0,-6.856 -5.559,-12.414 -12.414,-12.414 -6.856,0 -12.414,5.558 -12.414,12.414 0,6.856 5.558,12.414 12.414,12.414 C -5.559,12.414 0,6.856 0,0"
         style="fill:#352f2f;fill-opacity:1;fill-rule:nonzero;stroke:none"
         transform="translate(263.417,98.3945)"
         id="path56" /><path
         d="m 0,0 c 0,-3.82 -3.096,-6.916 -6.916,-6.916 -3.818,0 -6.916,3.096 -6.916,6.916 0,3.82 3.098,6.916 6.916,6.916 C -3.096,6.916 0,3.82 0,0"
         style="fill:#bc3a44;fill-opacity:1;fill-rule:nonzero;stroke:none"
         transform="translate(257.9189,98.3945)"
         id="path57" /><path
         d="m 0,0 c 0,-10.112 -8.197,-18.309 -18.311,-18.309 -10.111,0 -18.309,8.197 -18.309,18.309 0,10.113 8.198,18.31 18.309,18.31 C -8.197,18.31 0,10.113 0,0"
         style="fill:#ffa933;fill-opacity:1;fill-rule:nonzero;stroke:none"
         transform="translate(87.2256,98.3945)"
         id="path58" /><path
         d="m 0,0 c 0,-6.856 -5.559,-12.414 -12.415,-12.414 -6.856,0 -12.414,5.558 -12.414,12.414 0,6.856 5.558,12.414 12.414,12.414 C -5.559,12.414 0,6.856 0,0"
         style="fill:#352f2f;fill-opacity:1;fill-rule:nonzero;stroke:none"
         transform="translate(81.3301,98.3945)"
         id="path59" /><path
         d="m 0,0 c 0,-3.82 -3.096,-6.916 -6.916,-6.916 -3.819,0 -6.916,3.096 -6.916,6.916 0,3.82 3.097,6.916 6.916,6.916 C -3.096,6.916 0,3.82 0,0"
         style="fill:#bc3a44;fill-opacity:1;fill-rule:nonzero;stroke:none"
         transform="translate(75.8311,98.3945)"
         id="path60" /><path
         d="m 0,0 c 0,-10.112 -8.198,-18.309 -18.311,-18.309 -10.111,0 -18.309,8.197 -18.309,18.309 0,10.113 8.198,18.31 18.309,18.31 C -8.198,18.31 0,10.113 0,0"
         style="fill:#ffa933;fill-opacity:1;fill-rule:nonzero;stroke:none"
         transform="translate(40.2085,98.3945)"
         id="path61" /><path
         d="m 0,0 c 0,-6.856 -5.558,-12.414 -12.415,-12.414 -6.856,0 -12.414,5.558 -12.414,12.414 0,6.856 5.558,12.414 12.414,12.414 C -5.558,12.414 0,6.856 0,0"
         style="fill:#352f2f;fill-opacity:1;fill-rule:nonzero;stroke:none"
         transform="translate(34.3125,98.3945)"
         id="path62" /><path
         d="m 0,0 c 0,-3.82 -3.095,-6.916 -6.917,-6.916 -3.818,0 -6.915,3.096 -6.915,6.916 0,3.82 3.097,6.916 6.915,6.916 C -3.095,6.916 0,3.82 0,0"
         style="fill:#bc3a44;fill-opacity:1;fill-rule:nonzero;stroke:none"
         transform="translate(28.814,98.3945)"
         id="path63" /><path
         d="M 0,0 C 0,14.948 12.117,27.064 27.063,27.064 42.01,27.064 54.126,14.948 54.126,0 L 0,0 Z"
         style="fill:#ffa933;fill-opacity:1;fill-rule:nonzero;stroke:none"
         transform="translate(-0.2891,145.5815)"
         id="path64" /><path
         d="M 0,0 C 0,11.489 9.313,20.801 20.801,20.801 32.288,20.801 41.602,11.489 41.602,0 L 0,0 Z"
         style="fill:#352f2f;fill-opacity:1;fill-rule:nonzero;stroke:none"
         transform="translate(5.9731,145.5815)"
         id="path65" /><path
         d="m 0,0 c 0,-14.948 12.117,-27.064 27.063,-27.064 14.946,0 27.063,12.116 27.063,27.064 L 0,0 Z"
         style="fill:#352f2f;fill-opacity:1;fill-rule:nonzero;stroke:none"
         transform="translate(42.5151,196.9214)"
         id="path66" /><path
         d="m 0,0 c 0,-11.488 9.313,-20.801 20.801,-20.801 11.487,0 20.8,9.313 20.8,20.801 L 0,0 Z"
         style="fill:#3a7b51;fill-opacity:1;fill-rule:nonzero;stroke:none"
         transform="translate(48.7773,196.9214)"
         id="path67" /><path
         d="M 0,0 C 0,14.948 12.117,27.064 27.063,27.064 42.01,27.064 54.127,14.948 54.127,0 L 0,0 Z"
         style="fill:#ffa933;fill-opacity:1;fill-rule:nonzero;stroke:none"
         transform="translate(85.3193,145.5815)"
         id="path68" /><path
         d="m 0,0 c 0,11.489 9.313,20.801 20.801,20.801 11.487,0 20.8,-9.312 20.8,-20.801 L 0,0 Z"
         style="fill:#352f2f;fill-opacity:1;fill-rule:nonzero;stroke:none"
         transform="translate(91.582,145.5815)"
         id="path69" /><path
         d="m 0,0 c 0,-14.948 12.117,-27.064 27.062,-27.064 14.948,0 27.063,12.116 27.063,27.064 L 0,0 Z"
         style="fill:#352f2f;fill-opacity:1;fill-rule:nonzero;stroke:none"
         transform="translate(128.124,196.9214)"
         id="path70" /><path
         d="m 0,0 c 0,-11.488 9.313,-20.801 20.8,-20.801 11.488,0 20.801,9.313 20.801,20.801 L 0,0 Z"
         style="fill:#3a7b51;fill-opacity:1;fill-rule:nonzero;stroke:none"
         transform="translate(134.3867,196.9214)"
         id="path71" /><path
         d="M 0,0 C 0,14.948 12.115,27.064 27.062,27.064 42.01,27.064 54.125,14.948 54.125,0 L 0,0 Z"
         style="fill:#ffa933;fill-opacity:1;fill-rule:nonzero;stroke:none"
         transform="translate(170.9287,145.5815)"
         id="path72" /><path
         d="M 0,0 C 0,11.489 9.311,20.801 20.799,20.801 32.285,20.801 41.6,11.489 41.6,0 L 0,0 Z"
         style="fill:#352f2f;fill-opacity:1;fill-rule:nonzero;stroke:none"
         transform="translate(177.1924,145.5815)"
         id="path73" /><path
         d="m 0,0 c 0,-14.948 12.117,-27.064 27.064,-27.064 14.948,0 27.063,12.116 27.063,27.064 L 0,0 Z"
         style="fill:#352f2f;fill-opacity:1;fill-rule:nonzero;stroke:none"
         transform="translate(213.7314,196.9214)"
         id="path74" /><path
         d="M 0,0 C 0,-11.488 9.313,-20.801 20.801,-20.801 32.289,-20.801 41.6,-11.488 41.6,0 L 0,0 Z"
         style="fill:#3a7b51;fill-opacity:1;fill-rule:nonzero;stroke:none"
         transform="translate(219.9951,196.9214)"
         id="path75" /><path
         d="m 0,0 c 0,-1.317 -1.068,-2.385 -2.385,-2.385 -1.317,0 -2.385,1.068 -2.385,2.385 0,1.317 1.068,2.385 2.385,2.385 C -1.068,2.385 0,1.317 0,0"
         style="fill:#bc3a44;fill-opacity:1;fill-rule:nonzero;stroke:none"
         transform="translate(4.7642,204.1636)"
         id="path76" /><path
         d="m 0,0 c 0,-1.317 -1.068,-2.385 -2.385,-2.385 -1.317,0 -2.385,1.068 -2.385,2.385 0,1.317 1.068,2.385 2.385,2.385 C -1.068,2.385 0,1.317 0,0"
         style="fill:#bc3a44;fill-opacity:1;fill-rule:nonzero;stroke:none"
         transform="translate(16.1577,204.1636)"
         id="path77" /><path
         d="m 0,0 c 0,-1.317 -1.068,-2.385 -2.385,-2.385 -1.317,0 -2.385,1.068 -2.385,2.385 0,1.317 1.068,2.385 2.385,2.385 C -1.068,2.385 0,1.317 0,0"
         style="fill:#bc3a44;fill-opacity:1;fill-rule:nonzero;stroke:none"
         transform="translate(27.5513,204.1636)"
         id="path78" /><path
         d="m 0,0 c 0,-1.317 -1.068,-2.385 -2.385,-2.385 -1.317,0 -2.385,1.068 -2.385,2.385 0,1.317 1.068,2.385 2.385,2.385 C -1.068,2.385 0,1.317 0,0"
         style="fill:#bc3a44;fill-opacity:1;fill-rule:nonzero;stroke:none"
         transform="translate(38.9448,204.1636)"
         id="path79" /><path
         d="m 0,0 c 0,-1.317 -1.068,-2.385 -2.385,-2.385 -1.317,0 -2.385,1.068 -2.385,2.385 0,1.317 1.068,2.385 2.385,2.385 C -1.068,2.385 0,1.317 0,0"
         style="fill:#bc3a44;fill-opacity:1;fill-rule:nonzero;stroke:none"
         transform="translate(50.3384,204.1636)"
         id="path80" /><path
         d="m 0,0 c 0,-1.317 -1.068,-2.385 -2.385,-2.385 -1.317,0 -2.386,1.068 -2.386,2.385 0,1.317 1.069,2.385 2.386,2.385 C -1.068,2.385 0,1.317 0,0"
         style="fill:#bc3a44;fill-opacity:1;fill-rule:nonzero;stroke:none"
         transform="translate(61.7319,204.1636)"
         id="path81" /><path
         d="m 0,0 c 0,-1.317 -1.068,-2.385 -2.386,-2.385 -1.317,0 -2.385,1.068 -2.385,2.385 0,1.317 1.068,2.385 2.385,2.385 C -1.068,2.385 0,1.317 0,0"
         style="fill:#bc3a44;fill-opacity:1;fill-rule:nonzero;stroke:none"
         transform="translate(73.126,204.1636)"
         id="path82" /><path
         d="m 0,0 c 0,-1.317 -1.068,-2.385 -2.385,-2.385 -1.317,0 -2.385,1.068 -2.385,2.385 0,1.317 1.068,2.385 2.385,2.385 C -1.068,2.385 0,1.317 0,0"
         style="fill:#bc3a44;fill-opacity:1;fill-rule:nonzero;stroke:none"
         transform="translate(84.5186,204.1636)"
         id="path83" /><path
         d="m 0,0 c 0,-1.317 -1.067,-2.385 -2.385,-2.385 -1.317,0 -2.386,1.068 -2.386,2.385 0,1.317 1.069,2.385 2.386,2.385 C -1.067,2.385 0,1.317 0,0"
         style="fill:#bc3a44;fill-opacity:1;fill-rule:nonzero;stroke:none"
         transform="translate(95.9121,204.1636)"
         id="path84" /><path
         d="m 0,0 c 0,-1.317 -1.068,-2.385 -2.385,-2.385 -1.317,0 -2.385,1.068 -2.385,2.385 0,1.317 1.068,2.385 2.385,2.385 C -1.068,2.385 0,1.317 0,0"
         style="fill:#bc3a44;fill-opacity:1;fill-rule:nonzero;stroke:none"
         transform="translate(107.3057,204.1636)"
         id="path85" /><path
         d="m 0,0 c 0,-1.317 -1.067,-2.385 -2.386,-2.385 -1.316,0 -2.385,1.068 -2.385,2.385 0,1.317 1.069,2.385 2.385,2.385 C -1.067,2.385 0,1.317 0,0"
         style="fill:#bc3a44;fill-opacity:1;fill-rule:nonzero;stroke:none"
         transform="translate(118.6992,204.1636)"
         id="path86" /><path
         d="m 0,0 c 0,-1.317 -1.068,-2.385 -2.385,-2.385 -1.317,0 -2.385,1.068 -2.385,2.385 0,1.317 1.068,2.385 2.385,2.385 C -1.068,2.385 0,1.317 0,0"
         style="fill:#bc3a44;fill-opacity:1;fill-rule:nonzero;stroke:none"
         transform="translate(130.0928,204.1636)"
         id="path87" /><path
         d="m 0,0 c 0,-1.317 -1.067,-2.385 -2.386,-2.385 -1.316,0 -2.385,1.068 -2.385,2.385 0,1.317 1.069,2.385 2.385,2.385 C -1.067,2.385 0,1.317 0,0"
         style="fill:#bc3a44;fill-opacity:1;fill-rule:nonzero;stroke:none"
         transform="translate(141.4863,204.1636)"
         id="path88" /><path
         d="m 0,0 c 0,-1.317 -1.068,-2.385 -2.385,-2.385 -1.318,0 -2.385,1.068 -2.385,2.385 0,1.317 1.067,2.385 2.385,2.385 C -1.068,2.385 0,1.317 0,0"
         style="fill:#bc3a44;fill-opacity:1;fill-rule:nonzero;stroke:none"
         transform="translate(152.8799,204.1636)"
         id="path89" /><path
         d="m 0,0 c 0,-1.317 -1.066,-2.385 -2.385,-2.385 -1.316,0 -2.385,1.068 -2.385,2.385 0,1.317 1.069,2.385 2.385,2.385 C -1.066,2.385 0,1.317 0,0"
         style="fill:#bc3a44;fill-opacity:1;fill-rule:nonzero;stroke:none"
         transform="translate(164.2725,204.1636)"
         id="path90" /><path
         d="m 0,0 c 0,-1.317 -1.068,-2.385 -2.385,-2.385 -1.318,0 -2.385,1.068 -2.385,2.385 0,1.317 1.067,2.385 2.385,2.385 C -1.068,2.385 0,1.317 0,0"
         style="fill:#bc3a44;fill-opacity:1;fill-rule:nonzero;stroke:none"
         transform="translate(175.667,204.1636)"
         id="path91" /><path
         d="m 0,0 c 0,-1.317 -1.066,-2.385 -2.385,-2.385 -1.316,0 -2.385,1.068 -2.385,2.385 0,1.317 1.069,2.385 2.385,2.385 C -1.066,2.385 0,1.317 0,0"
         style="fill:#bc3a44;fill-opacity:1;fill-rule:nonzero;stroke:none"
         transform="translate(187.0596,204.1636)"
         id="path92" /><path
         d="m 0,0 c 0,-1.317 -1.068,-2.385 -2.385,-2.385 -1.318,0 -2.385,1.068 -2.385,2.385 0,1.317 1.067,2.385 2.385,2.385 C -1.068,2.385 0,1.317 0,0"
         style="fill:#bc3a44;fill-opacity:1;fill-rule:nonzero;stroke:none"
         transform="translate(198.4541,204.1636)"
         id="path93" /><path
         d="m 0,0 c 0,-1.317 -1.07,-2.385 -2.385,-2.385 -1.318,0 -2.385,1.068 -2.385,2.385 0,1.317 1.067,2.385 2.385,2.385 C -1.07,2.385 0,1.317 0,0"
         style="fill:#bc3a44;fill-opacity:1;fill-rule:nonzero;stroke:none"
         transform="translate(209.8486,204.1636)"
         id="path94" /><path
         d="m 0,0 c 0,-1.317 -1.068,-2.385 -2.385,-2.385 -1.316,0 -2.383,1.068 -2.383,2.385 0,1.317 1.067,2.385 2.383,2.385 C -1.068,2.385 0,1.317 0,0"
         style="fill:#bc3a44;fill-opacity:1;fill-rule:nonzero;stroke:none"
         transform="translate(221.2412,204.1636)"
         id="path95" /><path
         d="m 0,0 c 0,-1.317 -1.068,-2.385 -2.385,-2.385 -1.318,0 -2.385,1.068 -2.385,2.385 0,1.317 1.067,2.385 2.385,2.385 C -1.068,2.385 0,1.317 0,0"
         style="fill:#bc3a44;fill-opacity:1;fill-rule:nonzero;stroke:none"
         transform="translate(232.6357,204.1636)"
         id="path96" /><path
         d="m 0,0 c 0,-1.317 -1.068,-2.385 -2.385,-2.385 -1.318,0 -2.385,1.068 -2.385,2.385 0,1.317 1.067,2.385 2.385,2.385 C -1.068,2.385 0,1.317 0,0"
         style="fill:#bc3a44;fill-opacity:1;fill-rule:nonzero;stroke:none"
         transform="translate(244.0303,204.1636)"
         id="path97" /><path
         d="m 0,0 c 0,-1.317 -1.068,-2.385 -2.385,-2.385 -1.318,0 -2.385,1.068 -2.385,2.385 0,1.317 1.067,2.385 2.385,2.385 C -1.068,2.385 0,1.317 0,0"
         style="fill:#bc3a44;fill-opacity:1;fill-rule:nonzero;stroke:none"
         transform="translate(255.4248,204.1636)"
         id="path98" /><path
         d="m 0,0 c 0,-1.317 -1.068,-2.385 -2.383,-2.385 -1.318,0 -2.385,1.068 -2.385,2.385 0,1.317 1.067,2.385 2.385,2.385 C -1.068,2.385 0,1.317 0,0"
         style="fill:#bc3a44;fill-opacity:1;fill-rule:nonzero;stroke:none"
         transform="translate(266.8174,204.1636)"
         id="path99" /><path
         d="m 272.929,7.129 -273.393,0 0,3.564 273.393,0 0,-3.564 z"
         style="fill:#bc3a44;fill-opacity:1;fill-rule:nonzero;stroke:none"
         id="path100" /><path
         d="m 272.929,3.564 -273.393,0 0,3.564 273.393,0 0,-3.564 z"
         style="fill:#352f2f;fill-opacity:1;fill-rule:nonzero;stroke:none"
         id="path101" /><path
         d="m 272.929,0 -273.393,0 0,3.564 273.393,0 0,-3.564 z"
         style="fill:#3a7b51;fill-opacity:1;fill-rule:nonzero;stroke:none"
         id="path102" /><path
         d="m 272.929,69.161 -273.393,0 0,3.563 273.393,0 0,-3.563 z"
         style="fill:#bc3a44;fill-opacity:1;fill-rule:nonzero;stroke:none"
         id="path103" /><path
         d="m 272.929,65.597 -273.393,0 0,3.564 273.393,0 0,-3.564 z"
         style="fill:#352f2f;fill-opacity:1;fill-rule:nonzero;stroke:none"
         id="path104" /><path
         d="m 272.929,62.033 -273.393,0 0,3.563 273.393,0 0,-3.563 z"
         style="fill:#3a7b51;fill-opacity:1;fill-rule:nonzero;stroke:none"
         id="path105" /><path
         d="m 0.007,72.725 -273.371,0 0,51.34 273.371,0 0,-51.34 z"
         style="fill:#3a7b51;fill-opacity:1;fill-rule:nonzero;stroke:none"
         id="path106" /><path
         d="m 0.007,145.582 -273.371,0 0,51.34 273.371,0 0,-51.34 z"
         style="fill:#bc3a44;fill-opacity:1;fill-rule:nonzero;stroke:none"
         id="path107" /><path
         d="m 0.007,196.921 -273.371,0 0,14.484 273.371,0 0,-14.484 z"
         style="fill:#ffa933;fill-opacity:1;fill-rule:nonzero;stroke:none"
         id="path108" /><path
         d="m 0.007,10.693 -273.371,0 0,51.34 273.371,0 0,-51.34 z"
         style="fill:#ffa933;fill-opacity:1;fill-rule:nonzero;stroke:none"
         id="path109" /><path
         d="m 0.007,124.064 -273.371,0 0,21.617 273.371,0 0,-21.617 z"
         style="fill:#e8d7bf;fill-opacity:1;fill-rule:nonzero;stroke:none"
         id="path110" /><path
         d="M 0,0 -15.305,16.176 -30.615,0 -45.926,16.177 -61.236,0 -76.545,16.177 -91.854,0 -107.165,16.177 -122.473,0 -137.781,16.177 -153.093,0 -168.402,16.176 -183.71,0 l -15.311,16.177 -13.938,-14.728 -2.742,2.343 16.68,17.625 15.311,-16.176 15.308,16.176 15.309,-16.176 15.312,16.176 15.308,-16.176 15.308,16.176 15.311,-16.176 15.309,16.176 15.309,-16.176 15.31,16.176 15.311,-16.176 15.31,16.176 L 0,5.241 15.311,21.417 30.621,5.241 45.93,21.417 62.398,4.017 59.869,1.449 45.93,16.177 30.621,0 15.311,16.177 0,0 Z"
         style="fill:#bc3a44;fill-opacity:1;fill-rule:nonzero;stroke:none"
         transform="translate(-59.9048,124.1636)"
         id="path111" /><path
         d="m 0.029,7.129 -273.393,0 0,3.564 273.393,0 0,-3.564 z"
         style="fill:#bc3a44;fill-opacity:1;fill-rule:nonzero;stroke:none"
         id="path112" /><path
         d="m 0.029,3.564 -273.393,0 0,3.564 273.393,0 0,-3.564 z"
         style="fill:#352f2f;fill-opacity:1;fill-rule:nonzero;stroke:none"
         id="path113" /><path
         d="m 0.029,0 -273.393,0 0,3.564 273.393,0 0,-3.564 z"
         style="fill:#3a7b51;fill-opacity:1;fill-rule:nonzero;stroke:none"
         id="path114" /><path
         d="m 0.029,69.161 -273.393,0 0,3.563 273.393,0 0,-3.563 z"
         style="fill:#bc3a44;fill-opacity:1;fill-rule:nonzero;stroke:none"
         id="path115" /><path
         d="m 0.029,65.597 -273.393,0 0,3.564 273.393,0 0,-3.564 z"
         style="fill:#352f2f;fill-opacity:1;fill-rule:nonzero;stroke:none"
         id="path116" /><path
         d="m 0.029,62.033 -273.393,0 0,3.563 273.393,0 0,-3.563 z"
         style="fill:#3a7b51;fill-opacity:1;fill-rule:nonzero;stroke:none"
         id="path117" /></pattern></defs><g
     inkscape:label="main"
     inkscape:groupmode="layer"
     id="layer1"><path
       style="font-weight:bold;font-size:356.022px;font-family:FreeMono;-inkscape-font-specification:'FreeMono Bold';fill:#f9f9f9;stroke-width:2.84177"
       d="m 223.99991,203.08524 c 0,-8.42106 -2.51391,-12.21054 -10.36987,-16.42106 6.91325,-14.73684 10.36987,-41.82208 10.36987,-63.29576 C 223.99991,71.15789 200.11777,32 168.37967,32 c -17.91161,0 -34.56625,13.05264 -43.67918,34.52631 -17.28312,41.26317 -9.74139,113.68421 -37.3944,113.68421 -13.51226,0 -23.88213,-24.42104 -23.88213,-55.57893 0,-27.78948 9.11292,-45.75688 20.42551,-49.96741 3.14239,-1.26316 15.08345,-2.94737 15.08345,-21.47368 0,-16.8421 -8.1702,-21.05264 -20.73975,-21.05264 H 57.45342 c -14.14074,0 -20.73975,6.73685 -20.73975,21.47369 0,6.73684 1.25696,9.68421 7.54173,16.84211 -8.17021,20.63157 -12.25531,34.38844 -12.25531,57.12529 0,57.68421 21.99671,96.42105 54.67753,96.42105 16.34041,0 29.22419,-8 39.27983,-24.84211 23.88214,-40 11.62683,-123.3684 42.73646,-123.3684 13.51226,0 23.88213,21.05262 23.88213,47.57893 0,26.10528 -8.48444,54.87471 -21.05398,58.66418 -5.97054,1.68422 -16.96889,2.52631 -16.96889,21.05264 0,17.26315 9.74139,20.63157 21.05398,20.63157 h 27.65301 c 10.99835,0 20.73975,-2.10526 20.73975,-20.63157 z"
       id="text2"
       aria-label="S"
       sodipodi:nodetypes="scsscsscsssscssssscssss" /></g></svg>
